<mxfile host="app.diagrams.net" agent="Mozilla/5.0 (Windows NT 10.0; Win64; x64) AppleWebKit/537.36 (KHTML, like Gecko) Chrome/127.0.0.0 Safari/537.36" version="24.7.7">
  <diagram name="PÃ¡gina-1" id="8V2ntygtz2Op1Wjj-cRe">
    <mxGraphModel grid="1" page="1" gridSize="10" guides="1" tooltips="1" connect="1" arrows="1" fold="1" pageScale="1" pageWidth="827" pageHeight="1169" math="0" shadow="0">
      <root>
        <mxCell id="0" />
        <mxCell id="1" parent="0" />
        <mxCell id="MSsmb0sxUAQuS57E91fP-10" value="" style="edgeStyle=orthogonalEdgeStyle;rounded=0;orthogonalLoop=1;jettySize=auto;html=1;" edge="1" parent="1" source="MSsmb0sxUAQuS57E91fP-6">
          <mxGeometry relative="1" as="geometry">
            <Array as="points">
              <mxPoint x="210" y="170" />
              <mxPoint x="210" y="170" />
            </Array>
          </mxGeometry>
        </mxCell>
        <mxCell id="MSsmb0sxUAQuS57E91fP-6" value="Patient (extends User)" style="swimlane;fontStyle=1;align=center;verticalAlign=top;childLayout=stackLayout;horizontal=1;startSize=26;horizontalStack=0;resizeParent=1;resizeParentMax=0;resizeLast=0;collapsible=1;marginBottom=0;whiteSpace=wrap;html=1;" vertex="1" parent="1">
          <mxGeometry x="140" y="310" width="160" height="140" as="geometry" />
        </mxCell>
        <mxCell id="MSsmb0sxUAQuS57E91fP-7" value="&lt;div&gt;&lt;div&gt;- bloodType: String&lt;/div&gt;&lt;div&gt;- comorbidity: String&lt;/div&gt;&lt;div&gt;- medications: String&lt;/div&gt;&lt;/div&gt;" style="text;strokeColor=none;fillColor=none;align=left;verticalAlign=top;spacingLeft=4;spacingRight=4;overflow=hidden;rotatable=0;points=[[0,0.5],[1,0.5]];portConstraint=eastwest;whiteSpace=wrap;html=1;" vertex="1" parent="MSsmb0sxUAQuS57E91fP-6">
          <mxGeometry y="26" width="160" height="114" as="geometry" />
        </mxCell>
        <mxCell id="MSsmb0sxUAQuS57E91fP-2" value="User (abstract)" style="swimlane;fontStyle=1;align=center;verticalAlign=top;childLayout=stackLayout;horizontal=1;startSize=26;horizontalStack=0;resizeParent=1;resizeParentMax=0;resizeLast=0;collapsible=1;marginBottom=0;whiteSpace=wrap;html=1;" vertex="1" parent="1">
          <mxGeometry x="320" y="20" width="200" height="160" as="geometry" />
        </mxCell>
        <mxCell id="MSsmb0sxUAQuS57E91fP-3" value="&lt;div&gt;- userId: long (auto-generated)&lt;br&gt;&lt;/div&gt;&lt;div&gt;- name: String&lt;/div&gt;&lt;div&gt;- CPF: long&lt;/div&gt;&lt;div&gt;- RG: long&lt;/div&gt;&lt;div&gt;- login: String&lt;/div&gt;&lt;div&gt;- password: int&lt;/div&gt;&lt;div&gt;&lt;span style=&quot;background-color: initial;&quot;&gt;- dateOfBirth: Date&lt;/span&gt;&lt;/div&gt;&lt;div&gt;&lt;span style=&quot;background-color: initial;&quot;&gt;- address: Address&amp;nbsp; &amp;nbsp;&amp;nbsp;&lt;/span&gt;&lt;/div&gt;" style="text;strokeColor=none;fillColor=none;align=left;verticalAlign=top;spacingLeft=4;spacingRight=4;overflow=hidden;rotatable=0;points=[[0,0.5],[1,0.5]];portConstraint=eastwest;whiteSpace=wrap;html=1;" vertex="1" parent="MSsmb0sxUAQuS57E91fP-2">
          <mxGeometry y="26" width="200" height="134" as="geometry" />
        </mxCell>
        <mxCell id="XVnTQnKk8Ka7zgQLv3s4-11" value="Doctor (extends User)" style="swimlane;fontStyle=1;align=center;verticalAlign=top;childLayout=stackLayout;horizontal=1;startSize=26;horizontalStack=0;resizeParent=1;resizeParentMax=0;resizeLast=0;collapsible=1;marginBottom=0;whiteSpace=wrap;html=1;" vertex="1" parent="1">
          <mxGeometry x="330" y="310" width="240" height="230" as="geometry" />
        </mxCell>
        <mxCell id="XVnTQnKk8Ka7zgQLv3s4-12" value="&lt;div&gt;- crm: String&lt;/div&gt;&lt;div&gt;- specialty: Specialty (enumeration)&lt;/div&gt;&lt;div&gt;- yearsOfExperience: int&lt;/div&gt;" style="text;strokeColor=none;fillColor=none;align=left;verticalAlign=top;spacingLeft=4;spacingRight=4;overflow=hidden;rotatable=0;points=[[0,0.5],[1,0.5]];portConstraint=eastwest;whiteSpace=wrap;html=1;" vertex="1" parent="XVnTQnKk8Ka7zgQLv3s4-11">
          <mxGeometry y="26" width="240" height="74" as="geometry" />
        </mxCell>
        <mxCell id="XVnTQnKk8Ka7zgQLv3s4-13" value="" style="line;strokeWidth=1;fillColor=none;align=left;verticalAlign=middle;spacingTop=-1;spacingLeft=3;spacingRight=3;rotatable=0;labelPosition=right;points=[];portConstraint=eastwest;strokeColor=inherit;" vertex="1" parent="XVnTQnKk8Ka7zgQLv3s4-11">
          <mxGeometry y="100" width="240" height="8" as="geometry" />
        </mxCell>
        <mxCell id="XVnTQnKk8Ka7zgQLv3s4-14" value="&lt;div&gt;&lt;div&gt;+ Doctor()&lt;/div&gt;&lt;div&gt;+ Getters and Setters&lt;/div&gt;&lt;div&gt;+ generateReport()&lt;/div&gt;&lt;div&gt;+ prescribeMedication()&lt;/div&gt;&lt;div&gt;+ viewAppointments()&lt;/div&gt;&lt;/div&gt;&lt;div&gt;+&amp;nbsp;recordExercises()&lt;/div&gt;" style="text;strokeColor=none;fillColor=none;align=left;verticalAlign=top;spacingLeft=4;spacingRight=4;overflow=hidden;rotatable=0;points=[[0,0.5],[1,0.5]];portConstraint=eastwest;whiteSpace=wrap;html=1;" vertex="1" parent="XVnTQnKk8Ka7zgQLv3s4-11">
          <mxGeometry y="108" width="240" height="122" as="geometry" />
        </mxCell>
        <mxCell id="XVnTQnKk8Ka7zgQLv3s4-15" value="Admininastror" style="swimlane;fontStyle=1;align=center;verticalAlign=top;childLayout=stackLayout;horizontal=1;startSize=26;horizontalStack=0;resizeParent=1;resizeParentMax=0;resizeLast=0;collapsible=1;marginBottom=0;whiteSpace=wrap;html=1;" vertex="1" parent="1">
          <mxGeometry x="610" y="310" width="160" height="190" as="geometry" />
        </mxCell>
        <mxCell id="XVnTQnKk8Ka7zgQLv3s4-16" value="&lt;div&gt;- adminId: SecureNumber&lt;/div&gt;&lt;div&gt;&lt;br&gt;&lt;/div&gt;" style="text;strokeColor=none;fillColor=none;align=left;verticalAlign=top;spacingLeft=4;spacingRight=4;overflow=hidden;rotatable=0;points=[[0,0.5],[1,0.5]];portConstraint=eastwest;whiteSpace=wrap;html=1;" vertex="1" parent="XVnTQnKk8Ka7zgQLv3s4-15">
          <mxGeometry y="26" width="160" height="34" as="geometry" />
        </mxCell>
        <mxCell id="XVnTQnKk8Ka7zgQLv3s4-17" value="" style="line;strokeWidth=1;fillColor=none;align=left;verticalAlign=middle;spacingTop=-1;spacingLeft=3;spacingRight=3;rotatable=0;labelPosition=right;points=[];portConstraint=eastwest;strokeColor=inherit;" vertex="1" parent="XVnTQnKk8Ka7zgQLv3s4-15">
          <mxGeometry y="60" width="160" height="8" as="geometry" />
        </mxCell>
        <mxCell id="XVnTQnKk8Ka7zgQLv3s4-18" value="&lt;div&gt;+ Administrator()&lt;/div&gt;&lt;div&gt;+ Getters and Setters&lt;/div&gt;&lt;div&gt;+ createUser()&lt;/div&gt;&lt;div&gt;+ viewUserRecords()&lt;/div&gt;&lt;div&gt;+ scheduleAppointment()&lt;/div&gt;&lt;div&gt;+ rescheduleAppointment()&lt;/div&gt;" style="text;strokeColor=none;fillColor=none;align=left;verticalAlign=top;spacingLeft=4;spacingRight=4;overflow=hidden;rotatable=0;points=[[0,0.5],[1,0.5]];portConstraint=eastwest;whiteSpace=wrap;html=1;" vertex="1" parent="XVnTQnKk8Ka7zgQLv3s4-15">
          <mxGeometry y="68" width="160" height="122" as="geometry" />
        </mxCell>
        <mxCell id="XVnTQnKk8Ka7zgQLv3s4-19" value="&lt;div style=&quot;forced-color-adjust: none; color: rgb(0, 0, 0); font-family: Helvetica; font-size: 12px; font-style: normal; font-variant-ligatures: normal; font-variant-caps: normal; font-weight: 400; letter-spacing: normal; orphans: 2; text-indent: 0px; text-transform: none; widows: 2; word-spacing: 0px; -webkit-text-stroke-width: 0px; white-space: normal; background-color: rgb(251, 251, 251); text-decoration-thickness: initial; text-decoration-style: initial; text-decoration-color: initial;&quot;&gt;&lt;div&gt;+ User()&lt;/div&gt;&lt;div&gt;+ Getters and Setters&lt;/div&gt;&lt;div&gt;+ {protected abstract} login(): void&lt;/div&gt;&lt;/div&gt;" style="whiteSpace=wrap;html=1;align=left;" vertex="1" parent="1">
          <mxGeometry x="320" y="180" width="200" height="60" as="geometry" />
        </mxCell>
        <mxCell id="XVnTQnKk8Ka7zgQLv3s4-20" value="&lt;div&gt;+ Patient()&lt;/div&gt;&lt;div&gt;+ Getters and Setters&lt;/div&gt;&lt;div&gt;+ scheduleAppointment()&lt;/div&gt;&lt;div&gt;+ rescheduleAppointment()&lt;/div&gt;&lt;div&gt;+ viewMedicalHistory()&lt;/div&gt;" style="whiteSpace=wrap;html=1;align=left;" vertex="1" parent="1">
          <mxGeometry x="140" y="400" width="160" height="80" as="geometry" />
        </mxCell>
        <mxCell id="MSsmb0sxUAQuS57E91fP-11" value="Address" style="swimlane;fontStyle=1;align=center;verticalAlign=top;childLayout=stackLayout;horizontal=1;startSize=26;horizontalStack=0;resizeParent=1;resizeParentMax=0;resizeLast=0;collapsible=1;marginBottom=0;whiteSpace=wrap;html=1;" vertex="1" parent="1">
          <mxGeometry x="50" y="570" width="160" height="120" as="geometry" />
        </mxCell>
        <mxCell id="MSsmb0sxUAQuS57E91fP-13" value="" style="line;strokeWidth=1;fillColor=none;align=left;verticalAlign=middle;spacingTop=-1;spacingLeft=3;spacingRight=3;rotatable=0;labelPosition=right;points=[];portConstraint=eastwest;strokeColor=inherit;" vertex="1" parent="MSsmb0sxUAQuS57E91fP-11">
          <mxGeometry y="26" width="160" height="8" as="geometry" />
        </mxCell>
        <mxCell id="MSsmb0sxUAQuS57E91fP-12" value="&lt;div&gt;&lt;div&gt;&lt;div&gt;- cep: int&lt;/div&gt;&lt;div&gt;- street: String&lt;/div&gt;&lt;div&gt;- neighborhood: String&lt;/div&gt;&lt;div&gt;- houseNumber: String&lt;/div&gt;&lt;div&gt;- complement: String&lt;/div&gt;&lt;/div&gt;&lt;/div&gt;" style="text;strokeColor=none;fillColor=none;align=left;verticalAlign=top;spacingLeft=4;spacingRight=4;overflow=hidden;rotatable=0;points=[[0,0.5],[1,0.5]];portConstraint=eastwest;whiteSpace=wrap;html=1;" vertex="1" parent="MSsmb0sxUAQuS57E91fP-11">
          <mxGeometry y="34" width="160" height="86" as="geometry" />
        </mxCell>
        <mxCell id="XVnTQnKk8Ka7zgQLv3s4-25" value="Registration" style="swimlane;fontStyle=1;align=center;verticalAlign=top;childLayout=stackLayout;horizontal=1;startSize=26;horizontalStack=0;resizeParent=1;resizeParentMax=0;resizeLast=0;collapsible=1;marginBottom=0;whiteSpace=wrap;html=1;" vertex="1" parent="1">
          <mxGeometry x="370" y="595" width="290" height="240" as="geometry" />
        </mxCell>
        <mxCell id="XVnTQnKk8Ka7zgQLv3s4-26" value="&lt;div&gt;- registrationId: long (auto-generated)&lt;/div&gt;&lt;div&gt;- patientId: long&lt;/div&gt;&lt;div&gt;- patientStatus: Status (enumeration)&lt;/div&gt;&lt;div&gt;- consultationFee: float&lt;/div&gt;&lt;div&gt;- numberOfConsultations: int&lt;/div&gt;&lt;div&gt;- appointmentDate: Date&lt;/div&gt;&lt;div&gt;- exercises: String&lt;/div&gt;" style="text;strokeColor=none;fillColor=none;align=left;verticalAlign=top;spacingLeft=4;spacingRight=4;overflow=hidden;rotatable=0;points=[[0,0.5],[1,0.5]];portConstraint=eastwest;whiteSpace=wrap;html=1;" vertex="1" parent="XVnTQnKk8Ka7zgQLv3s4-25">
          <mxGeometry y="26" width="290" height="124" as="geometry" />
        </mxCell>
        <mxCell id="XVnTQnKk8Ka7zgQLv3s4-27" value="" style="line;strokeWidth=1;fillColor=none;align=left;verticalAlign=middle;spacingTop=-1;spacingLeft=3;spacingRight=3;rotatable=0;labelPosition=right;points=[];portConstraint=eastwest;strokeColor=inherit;" vertex="1" parent="XVnTQnKk8Ka7zgQLv3s4-25">
          <mxGeometry y="150" width="290" height="8" as="geometry" />
        </mxCell>
        <mxCell id="XVnTQnKk8Ka7zgQLv3s4-28" value="&lt;div&gt;&lt;div&gt;+ Registration()&lt;/div&gt;&lt;div&gt;+ Getters and Setters&lt;/div&gt;&lt;div&gt;+ calculateTotalFee()&lt;/div&gt;&lt;div&gt;+ updateConsultationCount()&lt;/div&gt;&lt;/div&gt;&lt;div&gt;+&amp;nbsp;addExerciseDetails(exerciseDetails: String)&lt;/div&gt;" style="text;strokeColor=none;fillColor=none;align=left;verticalAlign=top;spacingLeft=4;spacingRight=4;overflow=hidden;rotatable=0;points=[[0,0.5],[1,0.5]];portConstraint=eastwest;whiteSpace=wrap;html=1;" vertex="1" parent="XVnTQnKk8Ka7zgQLv3s4-25">
          <mxGeometry y="158" width="290" height="82" as="geometry" />
        </mxCell>
        <mxCell id="XVnTQnKk8Ka7zgQLv3s4-30" value="&lt;div&gt;&lt;div&gt;&lt;span style=&quot;color: rgba(0, 0, 0, 0); font-family: monospace; font-size: 0px; text-wrap: nowrap;&quot;&gt;%3CmxGraphModel%3E%3Croot%3E%3CmxCell%20id%3D%220%22%2F%3E%3CmxCell%20id%3D%221%22%20parent%3D%220%22%2F%3E%3CmxCell%20id%3D%222%22%20value%3D%22-%20int%20cep%26lt%3Bdiv%26gt%3B-%20String%20road%26lt%3B%2Fdiv%26gt%3B%26lt%3Bdiv%26gt%3B-%20String%26amp%3Bnbsp%3Bneighborhood%26lt%3B%2Fdiv%26gt%3B%26lt%3Bdiv%26gt%3B-%20String%20house%20number%26lt%3B%2Fdiv%26gt%3B%26lt%3Bdiv%26gt%3B-%20String%26amp%3Bnbsp%3Bcomplement%26lt%3B%2Fdiv%26gt%3B%26lt%3Bdiv%26gt%3B%26lt%3Bbr%26gt%3B%26lt%3Bdiv%26gt%3B%26lt%3Bbr%26gt%3B%26lt%3B%2Fdiv%26gt%3B%26lt%3B%2Fdiv%26gt%3B%22%20style%3D%22text%3BstrokeColor%3Dnone%3BfillColor%3Dnone%3Balign%3Dleft%3BverticalAlign%3Dtop%3BspacingLeft%3D4%3BspacingRight%3D4%3Boverflow%3Dhidden%3Brotatable%3D0%3Bpoints%3D%5B%5B0%2C0.5%5D%2C%5B1%2C0.5%5D%5D%3BportConstraint%3Deastwest%3BwhiteSpace%3Dwrap%3Bhtml%3D1%3B%22%20vertex%3D%221%22%20parent%3D%221%22%3E%3CmxGeometry%20x%3D%2250%22%20y%3D%22604%22%20width%3D%22160%22%20height%3D%2286%22%20as%3D%22geometry%22%2F%3E%3C%2FmxCell%3E%3C%2Froot%3E%3C%2FmxGraphModel%3E&lt;/span&gt;&lt;br&gt;&lt;/div&gt;&lt;/div&gt;" style="text;strokeColor=none;fillColor=none;align=left;verticalAlign=top;spacingLeft=4;spacingRight=4;overflow=hidden;rotatable=0;points=[[0,0.5],[1,0.5]];portConstraint=eastwest;whiteSpace=wrap;html=1;" vertex="1" parent="1">
          <mxGeometry x="50" y="690" width="160" height="86" as="geometry" />
        </mxCell>
        <mxCell id="XVnTQnKk8Ka7zgQLv3s4-31" value="&lt;span style=&quot;&quot;&gt;+ Address()&lt;/span&gt;&lt;div style=&quot;&quot;&gt;+ Getters and Setters&lt;/div&gt;" style="html=1;whiteSpace=wrap;align=left;" vertex="1" parent="1">
          <mxGeometry x="50" y="690" width="160" height="50" as="geometry" />
        </mxCell>
        <mxCell id="inbAAyhN90I8-hkg-Me3-5" value="Appointment" style="swimlane;fontStyle=1;align=center;verticalAlign=top;childLayout=stackLayout;horizontal=1;startSize=26;horizontalStack=0;resizeParent=1;resizeParentMax=0;resizeLast=0;collapsible=1;marginBottom=0;whiteSpace=wrap;html=1;" vertex="1" parent="1">
          <mxGeometry x="430" y="890" width="230" height="230" as="geometry" />
        </mxCell>
        <mxCell id="inbAAyhN90I8-hkg-Me3-6" value="&lt;div&gt;&lt;span style=&quot;background-color: initial;&quot;&gt;- patientId: long&lt;/span&gt;&lt;br&gt;&lt;/div&gt;&lt;div&gt;- doctorId: long&lt;/div&gt;&lt;div&gt;- appointmentDate: Date&lt;/div&gt;&lt;div&gt;- appointmentStatus: Status (enumeration)&lt;/div&gt;" style="text;strokeColor=none;fillColor=none;align=left;verticalAlign=top;spacingLeft=4;spacingRight=4;overflow=hidden;rotatable=0;points=[[0,0.5],[1,0.5]];portConstraint=eastwest;whiteSpace=wrap;html=1;" vertex="1" parent="inbAAyhN90I8-hkg-Me3-5">
          <mxGeometry y="26" width="230" height="104" as="geometry" />
        </mxCell>
        <mxCell id="inbAAyhN90I8-hkg-Me3-7" value="" style="line;strokeWidth=1;fillColor=none;align=left;verticalAlign=middle;spacingTop=-1;spacingLeft=3;spacingRight=3;rotatable=0;labelPosition=right;points=[];portConstraint=eastwest;strokeColor=inherit;" vertex="1" parent="inbAAyhN90I8-hkg-Me3-5">
          <mxGeometry y="130" width="230" height="18" as="geometry" />
        </mxCell>
        <mxCell id="inbAAyhN90I8-hkg-Me3-8" value="&lt;div&gt;+ Appointment()&lt;/div&gt;&lt;div&gt;+ Getters and Setters&lt;/div&gt;&lt;div&gt;+ scheduleAppointment()&lt;/div&gt;&lt;div&gt;+ rescheduleAppointment()&lt;/div&gt;" style="text;strokeColor=none;fillColor=none;align=left;verticalAlign=top;spacingLeft=4;spacingRight=4;overflow=hidden;rotatable=0;points=[[0,0.5],[1,0.5]];portConstraint=eastwest;whiteSpace=wrap;html=1;" vertex="1" parent="inbAAyhN90I8-hkg-Me3-5">
          <mxGeometry y="148" width="230" height="82" as="geometry" />
        </mxCell>
        <mxCell id="inbAAyhN90I8-hkg-Me3-9" value="Status" style="swimlane;fontStyle=1;align=center;verticalAlign=top;childLayout=stackLayout;horizontal=1;startSize=26;horizontalStack=0;resizeParent=1;resizeParentMax=0;resizeLast=0;collapsible=1;marginBottom=0;whiteSpace=wrap;html=1;" vertex="1" parent="1">
          <mxGeometry x="140" y="940" width="160" height="62" as="geometry" />
        </mxCell>
        <mxCell id="inbAAyhN90I8-hkg-Me3-10" value="+ field: type" style="text;strokeColor=none;fillColor=none;align=left;verticalAlign=top;spacingLeft=4;spacingRight=4;overflow=hidden;rotatable=0;points=[[0,0.5],[1,0.5]];portConstraint=eastwest;whiteSpace=wrap;html=1;" vertex="1" parent="inbAAyhN90I8-hkg-Me3-9">
          <mxGeometry y="26" width="160" height="36" as="geometry" />
        </mxCell>
      </root>
    </mxGraphModel>
  </diagram>
</mxfile>
